<svg width="891" height="489" viewBox="0 0 891 489" fill="none" xmlns="http://www.w3.org/2000/svg">
<path d="M146.219 108.48C173.51 114.509 191.393 132.613 191.393 160.481C191.393 200.118 155.61 221.38 108.926 221.38H0.373352V0.76035H111.048C157.139 0.76035 186.247 22.5829 186.247 57.3461C186.247 82.0556 170.181 100.142 146.219 107.903V108.48ZM53.4267 39.5314V92.9584H104.663C120.134 92.9584 132.854 84.3483 132.854 66.2449C132.854 48.1415 120.117 39.5314 104.663 39.5314H53.4267ZM109.52 182.592C125.28 182.592 138.017 173.982 138.017 155.59C138.017 137.198 125.28 128.588 109.52 128.588H53.4267V182.592H109.52Z" fill="#4A21A5"/>
<path d="M352.098 0.760315H404.251V143.532C404.251 195.244 366.958 224.539 302.985 224.539C245.074 224.539 203.535 196.671 203.535 143.532V0.760315H256.894V143.244C256.894 168.531 275.388 185.751 304.19 185.751C332.993 185.751 352.098 169.38 352.098 143.244V0.760315Z" fill="#4A21A5"/>
<path d="M429.725 221.363V0.760315H483.084V221.363H429.725Z" fill="#4A21A5"/>
<path d="M509.475 0.760315H562.834V181.726H671.386V221.363H509.475V0.760315Z" fill="#4A21A5"/>
<path d="M681.694 0.760315H769.019C853.32 0.760315 889.085 51.8946 889.085 110.484C889.085 174.254 848.157 221.363 770.224 221.363H681.694V0.760315ZM764.467 182.303C809.641 182.303 834.809 158.749 834.809 111.35C834.809 63.9522 807.824 39.8201 763.244 39.8201H735.053V182.303H764.467Z" fill="#4A21A5"/>
<path d="M251.901 252.628H212.451V292.078H251.901V252.628Z" fill="#ECA227"/>
<path d="M251.901 331.511H212.451V370.961H251.901V331.511Z" fill="#ECA227"/>
<path d="M212.468 292.061H173.017V331.512H212.468V292.061Z" fill="#FAC134"/>
<path d="M212.468 331.512H173.017V370.961H212.468V331.512Z" fill="#FAC134"/>
<path d="M134.111 332.309H94.6602V371.76H134.111V332.309Z" fill="#FBE134"/>
<path d="M251.901 370.961H212.451V410.412H251.901V370.961Z" fill="#FAC134"/>
<path d="M173.544 370.962H134.094V410.412H173.544V370.962Z" fill="#FBE134"/>
<path d="M291.351 370.962L251.901 370.961V410.412H291.351V370.962Z" fill="#ECA227"/>
<path d="M173.017 252.628H133.567V292.078H173.017V252.628Z" fill="#FBE134"/>
<path d="M55.2097 370.962H15.7593V410.412H55.2097V370.962Z" fill="#FCF293"/>
<path d="M589.411 435.053H495.175L477.208 485.219H421.42L509.662 255.905H576.471L665.034 485.219H607.362L589.394 435.053H589.411ZM575.231 395.348L542.76 303.676H542.132L509.356 395.348H575.231Z" fill="#ECA227"/>
<path d="M771.277 252.628C849.125 252.628 890.715 303.388 890.715 370.571C890.715 437.754 849.431 488.515 770.955 488.515C692.479 488.515 651.5 437.754 651.5 370.571C651.5 303.388 692.784 252.628 771.26 252.628H771.277ZM771.277 448.198C814.447 448.198 834.622 413.265 834.622 370.571C834.622 327.877 813.819 292.944 770.955 292.944C728.091 292.944 707.61 327.877 707.61 370.571C707.61 413.265 728.413 448.198 771.277 448.198Z" fill="#ECA227"/>
<path d="M313.752 252.628H251.901V292.078H307.587C355.24 292.078 384.093 318.978 384.093 370.877C384.093 422.776 357.176 449.319 308.878 449.319H251.884V488.515H315.025C398.341 488.515 442.105 438.145 442.105 369.96C442.105 307.311 403.861 252.628 313.718 252.628H313.752Z" fill="#ECA227"/>
<path d="M212.994 409.614H173.544V449.064H212.994V409.614Z" fill="#FAC134"/>
<path d="M251.901 409.614H212.451V449.064H251.901V409.614Z" fill="#ECA227"/>
<path d="M251.901 449.047H212.451V488.498H251.901V449.047Z" fill="#ECA227"/>
</svg>
